<svg xmlns="http://www.w3.org/2000/svg" viewBox="0 0 24 24">
  <!-- Phone outline -->
  <path fill="#C5C5C5" d="M7 2C5.9 2 5 2.9 5 4v16c0 1.1.9 2 2 2h10c1.1 0 2-.9 2-2V4c0-1.1-.9-2-2-2H7zm0 1h10c.55 0 1 .45 1 1v16c0 .55-.45 1-1 1H7c-.55 0-1-.45-1-1V4c0-.55.45-1 1-1z"/>
  <!-- Screen area -->
  <rect fill="#C5C5C5" x="7" y="5" width="10" height="12" rx="0.5"/>
  <!-- Log lines (cut out from screen) -->
  <rect fill="#000" x="8" y="6.5" width="8" height="1.5"/>
  <rect fill="#000" x="8" y="9" width="6" height="1.5"/>
  <rect fill="#000" x="8" y="11.5" width="8" height="1.5"/>
  <rect fill="#000" x="8" y="14" width="5" height="1.5"/>
  <!-- Home button -->
  <circle fill="#C5C5C5" cx="12" cy="19.5" r="1"/>
</svg>
